<?xml version="1.0" encoding="utf-8"?>
<!-- Generator: Adobe Illustrator 18.0.0, SVG Export Plug-In . SVG Version: 6.00 Build 0)  -->
<!DOCTYPE svg PUBLIC "-//W3C//DTD SVG 1.1//EN" "http://www.w3.org/Graphics/SVG/1.1/DTD/svg11.dtd">
<svg version="1.1" id="Layer_1" xmlns="http://www.w3.org/2000/svg" xmlns:xlink="http://www.w3.org/1999/xlink" x="0px" y="0px"
	 viewBox="0 0 560 170" enable-background="new 0 0 560 170" xml:space="preserve">
<g>
	<path fill="#1490FD" d="M58.6,16.3c-31.2,0-56.2,25.5-56.2,56.6c0,31.4,25.1,56.6,56.2,56.6s56.2-25.5,56.2-56.6V16.3H58.6z"/>
	<path fill="#FFFFFF" d="M38.1,74.2c-4.7-4.7-5.8-11.9-3-17.5l3,3c0.4-1.8,1.5-3.2,2.9-4.5c1.3-1.3,2.9-2.4,4.5-2.9l-3-3.2
		c5.6-2.9,12.8-1.8,17.5,3c6.1,6.1,6.1,16,0,22S43.9,80.2,38.1,74.2z M63.5,48.5c-8.3-8.3-21.4-8.3-29.4,0c-8.3,8.3-8.3,21.6,0,29.8
		c7.6,7.6,19.7,8.3,27.9,1.5l6.1,6.3c-0.9,1.8-0.7,3.9,0.9,5.2l11.5,11.5c1.8,1.8,4.5,1.8,6.3,0l1.3-1.3c1.8-1.8,1.8-4.5,0-6.3
		L76.5,83.7c-1.3-1.3-3.4-1.8-5.2-0.9l-6.1-6.3C71.8,68.1,71.1,56,63.5,48.5z"/>
	<path fill="#172F4A" d="M230.5,70.8c0-10.8-0.4-19.9-0.7-27.6h23.1l1.3,11.9h0.4c3.4-5.4,12.3-13.9,26.3-13.9
		c17.5,0,30.7,11.7,30.7,37.2v51.2h-26.5V81.8c0-11-3.9-18.8-13.4-18.8c-7.4,0-11.7,5.2-13.4,10.1c-0.7,1.5-1.1,4.3-1.1,6.7v49.7
		h-26.5V70.8H230.5z"/>
	<path fill="#172F4A" d="M378.6,79.8c0-1.5-0.2-3.4-0.4-4.7c-1.5-7.4-7.4-13.2-15.5-13.2c-12.1,0-18.4,11-18.4,24.7
		c0,14.6,7.2,23.8,18.2,23.8c7.8,0,13.9-5.4,15.3-13c0.4-2,0.7-3.9,0.7-6.3L378.6,79.8L378.6,79.8z M405.2,4.1v99.6
		c0,9.7,0.4,19.9,0.7,25.8h-23.8l-1.3-12.8h-0.4c-5.4,9.7-15.7,14.6-26.8,14.6c-20.3,0-36.6-17.5-36.6-44.3
		c-0.2-29.2,17.9-46,38.4-46c10.6,0,18.8,3.6,22.7,9.7h0.4V4.1H405.2z"/>
	<path fill="#172F4A" d="M467.1,76.6c0-6.5-2.9-17.5-15.1-17.5c-11.2,0-15.7,10.1-16.4,17.5C435.7,76.6,467.1,76.6,467.1,76.6z
		 M435.9,95c0.9,11,11.7,16.4,24.2,16.4c9,0,16.4-1.3,23.6-3.4l3.4,18.2c-8.6,3.4-19.5,5.4-30.9,5.4c-29.2,0-45.8-17.1-45.8-44
		c0-21.8,13.4-46,43.2-46c27.6,0,38.2,21.8,38.2,43.2c0,4.5-0.4,8.6-0.9,10.6h-55.1V95z"/>
	<path fill="#172F4A" d="M497.6,71.6c0-12.8-0.4-20.9-0.7-28.5h22.9l0.9,16h0.7c4.3-12.6,14.9-17.9,23.1-17.9c2.4,0,3.6,0,5.6,0.4
		v25.3c-2-0.4-4.1-0.7-7.2-0.7c-9.7,0-16.4,5.2-18.2,13.6c-0.4,1.8-0.4,3.9-0.4,6.1v43.9h-26.5V71.6H497.6z"/>
	<rect x="193.2" y="43.3" fill="#172F4A" width="26.5" height="86.4"/>
	<path fill="#172F4A" d="M167.9,40.3c0-9.5,4.7-16.6,18.8-16.8c-0.9-2.2-1.3-4.5-1.3-7.2c0-5.4,2-10.1,5.2-13.9
		c-1.5-0.2-3-0.2-4.5-0.2c-26.3,0-44.9,13.4-44.9,37.2v3.6H130v19.9h11.2v66.5H168V62.9h14.3V43.1h-14.4L167.9,40.3L167.9,40.3z"/>
	<path fill="#1490FD" d="M222.2,16.3c0,8.8-6.9,15.7-15.7,15.7c-8.6,0-15.7-7.2-15.7-15.7s6.9-15.7,15.7-15.7
		C215.3,0.6,222.2,7.7,222.2,16.3z"/>
	<path fill="#172F4A" d="M401.5,166c-1.1,0.7-3.9,1.5-7.2,1.5c-7.6,0-12.6-5.2-12.6-13s5.4-13.4,13.6-13.4c2.9,0,5.2,0.7,6.3,1.3
		l-1.1,3.4c-1.1-0.7-2.9-1.3-5.4-1.3c-5.8,0-8.8,4.3-8.8,9.5c0,5.8,3.6,9.5,8.6,9.5c2.6,0,4.3-0.7,5.6-1.3L401.5,166z"/>
	<path fill="#172F4A" d="M406.7,154.1c0,5.6,3.2,9.7,7.6,9.7c4.3,0,7.6-4.1,7.6-9.9c0-4.3-2.2-9.7-7.6-9.7
		C409,144.4,406.7,149.4,406.7,154.1z M426.7,153.9c0,9.5-6.5,13.4-12.6,13.4c-6.9,0-12.1-5-12.1-13.2c0-8.5,5.6-13.4,12.6-13.4
		C421.8,141,426.7,146.2,426.7,153.9z"/>
	<path fill="#172F4A" d="M430,148.3c0-2.6,0-4.7-0.2-6.9h4.1l0.2,4.1h0.2c1.3-2.4,3.6-4.7,8-4.7c3.4,0,6.1,2.2,7.2,5.2l0,0
		c0.9-1.5,1.8-2.6,2.9-3.2c1.5-1.1,3.2-1.8,5.6-1.8c3.2,0,8.3,2.2,8.3,11V167h-4.5v-14.6c0-5-1.8-7.8-5.4-7.8c-2.6,0-4.5,2-5.4,4.1
		c-0.2,0.7-0.4,1.5-0.4,2.4v15.7h-4.5v-15.3c0-4.1-1.8-6.9-5.2-6.9c-2.9,0-5,2.4-5.6,4.5c-0.2,0.7-0.4,1.5-0.4,2.2v15.3h-4.5v-18.3
		H430z"/>
	<path fill="#172F4A" d="M472.5,167.5c-1.8,0-3-1.3-3-3.2c0-2,1.3-3.2,3-3.2c1.8,0,3,1.3,3,3.2C475.8,166,474.7,167.5,472.5,167.5
		L472.5,167.5z"/>
	<path fill="#172F4A" d="M376.2,167.5c-1.8,0-3-1.3-3-3.2c0-2,1.3-3.2,3.2-3.2s3,1.3,3,3.2C379.5,166,378.2,167.5,376.2,167.5
		L376.2,167.5z"/>
	<path fill="#172F4A" d="M493.8,153.9c-5-0.2-10.6,0.9-10.6,5.6c0,3,2,4.3,4.3,4.3c3.2,0,5.4-2.2,6.1-4.3c0.2-0.4,0.2-1.1,0.2-1.5
		L493.8,153.9L493.8,153.9z M498.1,160.8c0,2.2,0.2,4.3,0.4,6.1h-4.1l-0.4-3.2h-0.2c-1.3,2-4.1,3.9-7.8,3.9c-5.2,0-7.8-3.6-7.8-7.4
		c0-6.1,5.4-9.5,15.1-9.5v-0.4c0-2.2-0.7-5.8-5.6-5.8c-2.4,0-4.7,0.7-6.5,2l-1.1-3c2.2-1.3,5.2-2.2,8.3-2.2c7.8,0,9.5,5.4,9.5,10.4
		v9.3h0.1V160.8z"/>
	<path fill="#172F4A" d="M524,159.9c0,2.6,0,5,0.2,6.9h-4.1l-0.2-4.1l0,0c-1.3,2-3.9,4.7-8.5,4.7c-3.9,0-8.6-2.2-8.6-11v-14.9h4.5
		v14.1c0,4.7,1.5,8.3,5.6,8.3c3,0,5.2-2.2,6.1-4.3c0.2-0.7,0.4-1.5,0.4-2.4v-15.5h4.5L524,159.9L524,159.9z"/>
</g>
</svg>
